# xmcd
#
# Track frame offsets:
#	150
#	19720
#	36069
#	51621
#	63738
#	79954
#	95843
#	112777
#	129868
#	141559
#	163164
#	180351
#	199314
#	218731
#	234420
#	252752
#
# Disc length: 3641
#
# Revision: 1
# Processed by: cddbd v1.5.1PL0 Copyright (c) Steve Scherf et al.
# Submitted via: audiograbber 1.83.01
# Normalized: r0:TDELIM( - )
#
DISCID=e50e3710
DTITLE=Chartbuster Vol.3 - 90's country Disc 6
DYEAR=1900
DGENRE=Karaoke Country
TTITLE0=Kenny Chesney - She Thinks My Tractor's Sexy
TTITLE1=Tim McGraw - Seventeen
TTITLE2=Chely Wright - Single White Female
TTITLE3=George Jones - Sinners And Saints
TTITLE4=Andy Griggs - She's More
TTITLE5=SHeDaisy - Little Good-Byes
TTITLE6=Lonestar - Smile
TTITLE7=Ty Herndon - Steam
TTITLE8=Julie Reeves - Trouble Is A Woman
TTITLE9=Steve Wariner - Two Teardrops
TTITLE10=George Strait - Write This Down
TTITLE11=Jessica Andrews - Unbreakable Heart
TTITLE12=Clint Black - When I Said I do
TTITLE13=Faith Hill - The Way You Love Me
TTITLE14=Kenny Chesney - You Had Me From Hello
TTITLE15=Dixie Chicks - Goodbye Earl
EXTD=
EXTT0=
EXTT1=
EXTT2=
EXTT3=
EXTT4=
EXTT5=
EXTT6=
EXTT7=
EXTT8=
EXTT9=
EXTT10=
EXTT11=
EXTT12=
EXTT13=
EXTT14=
EXTT15=
PLAYORDER=
